<?xml version="1.0" encoding="utf-8"?>
<!-- Generator: Adobe Illustrator 16.0.0, SVG Export Plug-In . SVG Version: 6.00 Build 0)  -->
<!DOCTYPE svg PUBLIC "-//W3C//DTD SVG 1.1//EN" "http://www.w3.org/Graphics/SVG/1.1/DTD/svg11.dtd">
<svg version="1.1" id="Layer_1" xmlns="http://www.w3.org/2000/svg" xmlns:xlink="http://www.w3.org/1999/xlink" x="0px" y="0px"
	 width="660.521px" height="262.957px" viewBox="0 0 660.521 262.957" enable-background="new 0 0 660.521 262.957"
	 xml:space="preserve">
<path fill="#6E757B" d="M280.21,143.016h-22.079l-4.257,12.769h-13.566l22.345-59.144h15.695l20.926,59.144h-14.719L280.21,143.016z
	 M276.664,132.463l-7.537-22.346l-7.449,22.346H276.664z"/>
<path fill="#6E757B" d="M345.295,115.039c3.959,3.754,5.941,10.006,5.941,18.755c0,7.036-1.773,12.679-5.32,16.937
	c-3.547,4.256-8.395,6.383-14.542,6.383c-4.493,0-8.247-0.796-11.261-2.394v17.114h-12.947v-51.43c0-3.606,1.995-6.325,5.985-8.158
	c3.99-1.832,9.118-2.779,15.385-2.838C335.748,109.408,341.333,111.286,345.295,115.039 M335.453,143.459
	c1.713-2.009,2.57-5.379,2.57-10.108c0-4.257-0.754-7.462-2.26-9.622c-1.509-2.157-4.096-3.237-7.76-3.237
	c-5.262,0-7.891,1.007-7.891,3.016v21.103c1.063,0.65,2.246,1.123,3.546,1.419c1.299,0.297,2.571,0.442,3.813,0.442
	C331.078,146.473,333.737,145.47,335.453,143.459"/>
<path fill="#6E757B" d="M397.701,115.039c3.961,3.754,5.94,10.006,5.94,18.755c0,7.036-1.772,12.679-5.319,16.937
	c-3.547,4.256-8.396,6.383-14.543,6.383c-4.492,0-8.245-0.796-11.262-2.394v17.114h-12.945v-51.43c0-3.606,1.994-6.325,5.984-8.158
	c3.99-1.832,9.118-2.779,15.385-2.838C388.154,109.408,393.741,111.286,397.701,115.039 M387.859,143.459
	c1.714-2.009,2.572-5.379,2.572-10.108c0-4.257-0.755-7.462-2.262-9.622c-1.508-2.157-4.094-3.237-7.76-3.237
	c-5.261,0-7.893,1.007-7.893,3.016v21.103c1.065,0.65,2.247,1.123,3.547,1.419c1.302,0.297,2.573,0.442,3.814,0.442
	C383.484,146.473,386.144,145.47,387.859,143.459"/>
<path fill="#6E757B" d="M419.602,156.271c-2.127-0.56-4.491-1.375-7.093-2.437v-11.617c4.789,3.605,9.813,5.409,15.074,5.409
	c2.01,0,3.474-0.34,4.39-1.021c0.916-0.678,1.375-1.61,1.375-2.793c0-1.359-0.74-2.363-2.217-3.015
	c-1.479-0.651-3.844-1.359-7.094-2.129c-3.43-0.708-6.251-2.128-8.468-4.255c-2.218-2.129-3.324-5.232-3.324-9.312
	c0-3.486,0.885-6.354,2.657-8.601c1.774-2.246,4.007-3.888,6.694-4.921c2.691-1.035,5.484-1.553,8.382-1.553
	c3.546,0,6.429,0.311,8.645,0.931c2.217,0.622,4.39,1.583,6.518,2.881v10.376c-3.014-1.655-5.352-2.837-7.005-3.548
	c-1.657-0.708-3.577-1.062-5.765-1.062c-2.187,0-3.813,0.339-4.875,1.019c-1.066,0.68-1.597,1.641-1.597,2.883
	c0,1.477,0.59,2.557,1.771,3.235c1.183,0.681,3.074,1.374,5.677,2.085c2.955,0.769,5.289,1.521,7.004,2.26
	c1.715,0.74,3.251,2.01,4.612,3.813c1.36,1.805,2.037,4.332,2.037,7.58c-0.117,5.086-2.037,8.796-5.761,11.13
	c-3.725,2.334-8.454,3.502-14.189,3.502C424.213,157.113,421.73,156.834,419.602,156.271"/>
<path fill="#6E757B" d="M457.379,94.6h13.655v10.197h-13.655V94.6z M457.646,111.537h13.21l0.09,44.247h-13.3V111.537z"/>
<rect x="483.624" y="93.98" fill="#6E757B" width="13.123" height="61.805"/>
<path fill="#6E757B" d="M512.532,151.086c-3.785-4.021-5.676-9.989-5.676-17.912c0-8.277,1.876-14.306,5.631-18.091
	c3.755-3.782,9.443-5.674,17.069-5.674s13.359,1.936,17.203,5.807c3.843,3.873,5.762,9.86,5.762,17.958
	c0,7.803-1.98,13.743-5.94,17.821c-3.96,4.08-9.635,6.118-17.024,6.118C521.988,157.113,516.314,155.106,512.532,151.086
	 M536.916,143.148c1.655-2.275,2.483-5.6,2.483-9.975c0-4.789-0.813-8.203-2.438-10.242c-1.627-2.039-4.094-3.06-7.405-3.06
	c-3.43,0-5.896,1.021-7.404,3.06c-1.509,2.039-2.261,5.453-2.261,10.242c0,4.553,0.782,7.923,2.35,10.107
	c1.564,2.188,4.005,3.281,7.315,3.281C532.807,146.563,535.26,145.424,536.916,143.148"/>
<path fill="#6E757B" d="M571.32,111.271c4.729-1.064,8.955-1.596,12.68-1.596c6.325,0,11.086,1.242,14.276,3.725
	c3.191,2.483,4.789,6.561,4.789,12.235v30.149h-13.212v-27.487c0-5.145-2.898-7.715-8.69-7.715c-1.3,0-2.631,0.148-3.99,0.443
	c-1.36,0.296-2.425,0.652-3.192,1.065v33.694h-13.212v-41.056C563.074,113.487,566.59,112.334,571.32,111.271"/>
<g>
	<g>
		<path fill="#B3B8BA" d="M66.912,60.367V202.84l123.387-71.237L66.912,60.367z M105.415,131.597l-33.957,58.82V72.782
			L105.415,131.597z M108.038,131.597l-0.001-0.001h0.001V131.597z M109.351,133.867l67.923,0.008L75.396,192.692L109.351,133.867z
			 M109.349,129.321L75.397,70.515l101.87,58.813L109.349,129.321z"/>
	</g>
</g>
<path fill="#0099F9" d="M63.536,54.527c-5.637,3.256-7.571,10.493-4.314,16.133c3.256,5.638,10.49,7.582,16.127,4.325
	c5.641-3.256,7.58-10.493,4.326-16.133C76.415,53.212,69.176,51.268,63.536,54.527"/>
<path fill="#0099F9" d="M102.127,121.366c-5.638,3.251-7.571,10.491-4.314,16.131c3.253,5.638,10.487,7.579,16.125,4.328
	c5.64-3.257,7.581-10.499,4.325-16.136C115.006,120.046,107.767,118.11,102.127,121.366"/>
<path fill="#0099F9" d="M63.354,187.974c-5.64,3.256-7.573,10.496-4.314,16.139c3.256,5.634,10.487,7.576,16.125,4.32
	c5.643-3.254,7.582-10.494,4.325-16.131C76.233,186.658,68.994,184.717,63.354,187.974"/>
<path fill="#0099F9" d="M179.2,121.093c-5.637,3.253-7.571,10.493-4.314,16.133c3.256,5.641,10.49,7.582,16.125,4.325
	c5.643-3.256,7.582-10.493,4.325-16.133C192.079,119.778,184.84,117.834,179.2,121.093"/>
<rect fill="none" width="660.521" height="262.957"/>
<rect fill="none" width="660.521" height="262.957"/>
</svg>
